<svg width="792" height="810" viewBox="0 0 792 810" fill="none" xmlns="http://www.w3.org/2000/svg">
<path fill-rule="evenodd" clip-rule="evenodd" d="M347.371 113.315C313.025 117.689 290.024 124.25 263.054 137.368C246.814 145.267 234.691 153.311 222.863 164.037C208.558 177.008 200.849 187.108 192.457 203.872C183.73 221.304 180.179 233.841 178.367 253.621C174.809 292.449 187.221 334.198 214.214 374.199C226.612 392.572 236.038 404.142 249.856 417.95C284.503 452.571 328.057 481.723 378.554 504.093C432.639 528.053 460.696 540.878 477.054 549.119C502.273 561.823 518.09 575.073 525.174 589.429C528.924 597.027 529.052 597.628 528.99 607.331C528.934 616.01 528.562 618.164 526.249 623.224C518.989 639.102 508.836 647.153 483.366 657.227C461.438 665.899 443.81 668.904 418.054 668.36C400.069 667.98 390.993 666.989 375.554 663.721C365.548 661.603 344.857 655.639 341.754 653.978C340.207 653.15 339.016 654.169 333.99 660.624C330.725 664.817 325.902 670.724 323.272 673.751C319.695 677.869 318.83 679.446 319.839 680.011C322.332 681.406 341.976 687.74 350.054 689.754C384.776 698.411 430.544 700.236 463.554 694.28C496.419 688.351 531.508 675.203 554.054 660.37C596.079 632.722 619.444 583.152 614.746 531.61C612.69 509.044 607.853 491.63 596.838 467.132C577.96 425.147 544.236 386.215 495.48 350.121C474.842 334.843 443.524 317.73 413.647 305.406C407.821 303.002 395.854 297.806 387.054 293.859C378.254 289.911 362.954 283.08 353.054 278.678C315.877 262.146 291.791 248.055 279.75 235.791C268.559 224.393 263.346 210.531 265.349 197.493C268.947 174.068 290.442 157.803 331.554 147.394C349.428 142.868 362.151 141.584 383.554 142.143C405.839 142.726 419.712 144.808 441.916 150.901C449.659 153.026 456.061 154.676 456.143 154.568C474.5 130.42 475.524 128.81 473.105 127.891C461.876 123.621 442.245 118.786 421.868 115.271C409.44 113.127 403.108 112.654 382.554 112.335C365.682 112.073 354.728 112.378 347.371 113.315ZM236.186 277.65C244.983 295.9 256.676 311.754 276.023 331.66C317.054 373.877 350.694 399.368 426.054 445.347C460.85 466.577 498.219 495.513 513.622 513.152C522.8 523.664 522.928 523.83 522.303 524.455C521.989 524.769 518.429 521.993 514.393 518.286C495.874 501.277 476.358 487.997 435.554 464.64C375.693 430.374 335.855 404.299 312.054 383.807C300.248 373.642 280.451 353.385 272.683 343.522C260.588 328.166 244.61 302.939 236.04 285.668C231.373 276.263 227.554 267.736 227.554 266.72C227.554 262.142 230.523 265.902 236.186 277.65ZM210.466 290.371C214.675 302.219 224.03 321.325 230.812 331.923C243.792 352.208 280.244 390.756 306.554 412.021C335.428 435.357 362.607 452.853 411.554 479.612C433.971 491.867 457.738 505.642 459.511 507.406C460.545 508.435 460.658 509.167 459.9 509.925C459.142 510.683 456.102 509.544 449.443 506.011C444.279 503.27 425.204 494.288 407.054 486.051C365.357 467.126 353.08 460.647 328.054 444.362C294.477 422.513 265.98 397.786 250.272 376.871C243.968 368.478 234.695 353.473 226.787 338.871C217.545 321.807 201.655 280.655 202.978 277.209C204.092 274.307 205.871 277.434 210.466 290.371ZM280.596 292.446C283.048 294.962 288.364 299.523 292.41 302.582C302.287 310.049 337.653 332.887 361.054 346.909C427.227 386.562 453.205 403.252 472.251 418.349C493.846 435.465 520.05 464.12 536.286 488.371C549.548 508.181 563.758 536.192 565.269 545.505C566.305 551.884 563.655 548.939 559.672 539.283C546.629 507.666 524.904 481.065 485.054 447.919C445.124 414.707 419.03 396.246 356.882 357.246C341.756 347.753 325.387 336.263 314.554 327.532C298.029 314.215 273.554 291.3 273.554 289.146C273.554 286.684 276.18 287.915 280.596 292.446ZM344.678 305.405C370.634 314.502 430.642 342.97 455.054 357.767C495.905 382.529 527.865 410.675 546.514 438.312C560.455 458.971 574.373 485.961 582.385 507.871C588.554 524.743 589.373 528.185 587.105 527.714C586.028 527.49 584.443 524.35 582.532 518.651C575.207 496.815 560.642 473.39 540.077 450.371C498.568 403.908 461.665 374.647 401.054 340.135C384.358 330.628 352.588 313.747 347.018 311.423C340.921 308.878 338.55 307.044 339.193 305.369C339.247 305.228 339.294 305.098 339.337 304.979C339.491 304.552 339.594 304.265 339.798 304.121C340.212 303.828 341.04 304.121 343.546 305.006C343.891 305.128 344.267 305.261 344.678 305.405Z" fill="#E26212"/>
<path fill-rule="evenodd" clip-rule="evenodd" d="M233.015 458.202C218.931 476.159 205.226 493.501 181.717 523.112C155.246 556.454 150.69 563.647 145.962 579.564C142.717 590.487 141.598 609.283 143.54 620.237C149.648 654.694 175.499 682.706 209.344 691.541C221.342 694.673 238.907 695.119 250.337 692.582C258.981 690.663 272.884 684.907 280.554 680.072C293.617 671.837 298.836 665.992 349.042 603.371C364.917 583.571 383.14 561.071 389.538 553.371C395.936 545.671 401.475 538.862 401.848 538.24C402.292 537.498 395.91 534.442 383.29 529.356C372.71 525.092 357.831 518.493 350.226 514.692C316.881 498.024 276.13 470.972 252.483 449.808L244.912 443.032L233.015 458.202ZM263.167 488.058C263.704 485.372 263.281 484.398 260.275 481.392C256.277 477.394 253.042 476.913 249.406 479.773C248.076 480.819 238.677 492.15 228.521 504.953C218.364 517.755 203.384 536.587 195.231 546.8C173.131 574.488 167.859 586.467 168.803 606.859C169.383 619.392 172.292 628.161 179.542 639.235C184.425 646.691 191.524 653.871 194.015 653.871C195.137 653.871 194.79 652.356 192.506 647.265C187.861 636.911 185.581 626.425 185.432 614.724C185.154 592.944 189.878 581.011 206.789 560.771C216.921 548.644 254.517 501.89 259.848 494.787C261.327 492.817 262.821 489.788 263.167 488.058Z" fill="white"/>
<path fill-rule="evenodd" clip-rule="evenodd" d="M543.659 116.417C528.206 119.769 516.921 125.253 504.408 135.491C493.817 144.155 486.977 151.991 456.921 189.894C441.448 209.406 420.636 235.479 410.671 247.834C400.707 260.189 392.554 270.776 392.554 271.361C392.554 271.946 401.442 276.188 412.304 280.788C468.917 304.761 500.258 323.659 538.897 357.122C546.039 363.306 548.128 364.64 549.237 363.719C550.001 363.085 554.772 357.179 559.84 350.594C564.908 344.01 578.954 326.048 591.054 310.68C628.161 263.55 634.188 255.282 640.118 243.371C648.022 227.495 649.922 218.93 649.311 201.921C648.893 190.254 648.392 187.051 645.708 178.871C639.76 160.746 628.231 144.563 613.239 133.293C593.973 118.811 565.008 111.786 543.659 116.417ZM601.641 161.033C598.938 155.984 583.308 145.804 573.699 142.835C558.652 138.186 540.758 141.867 524.396 152.978C515.563 158.976 510.236 164.103 503.203 173.371C499.864 177.771 492.149 187.446 486.058 194.871C479.967 202.296 467.563 217.821 458.493 229.371C437.228 256.451 432.057 262.399 433.412 265.309C433.97 266.506 435.634 267.189 437.736 268.619C443.337 272.428 445.776 272.972 448.365 270.988C450.312 269.497 463.798 252.714 483.816 226.871C501.036 204.641 518.41 183.114 523.958 177.134C543.384 156.197 570.486 150.202 597.528 160.861C602.35 162.761 602.571 162.771 601.641 161.033Z" fill="white"/>
</svg>
