<svg width="994" height="148" viewBox="0 0 994 148" fill="none" xmlns="http://www.w3.org/2000/svg">
<path fill-rule="evenodd" clip-rule="evenodd" d="M867.373 15.953C847.726 16.412 835.993 17.092 833.373 17.925C814.199 24.02 798.12 40.682 792.286 60.5C789.57 69.729 789.99 84.339 793.267 94.578C799.234 113.227 814.574 128.354 833.873 134.621C838.777 136.214 844.658 136.446 888.141 136.764C943.454 137.169 947.751 136.79 960.873 130.358C975.662 123.108 988.623 106.705 992.456 90.387C994.601 81.255 993.915 66.06 990.936 56.718C985.089 38.385 967.839 22.481 948.426 17.525C940.909 15.606 908.885 14.985 867.373 15.953ZM876.623 51.649C874.835 50.3 871.573 48.705 869.373 48.104C864.857 46.87 864.778 46.87 859.591 48.092C847.803 50.867 840.905 59.803 840.687 72.579C840.528 81.942 844.402 89.286 851.857 93.75C856.516 96.54 858.219 97 863.883 97C869.486 97 871.19 96.551 875.177 94.022L879.873 91.044V94.457C879.873 101.307 877.088 105.295 871.159 106.931C866.307 108.271 859.435 106.53 856.911 103.322L855.002 100.894L849.398 104.615L843.794 108.335L847.579 112.211C852.476 117.226 859.457 119.354 869.235 118.812C877.365 118.362 882.589 116.217 887.485 111.321C893.068 105.738 893.873 100.95 893.873 73.318V49H886.873C880.036 49 879.873 49.059 879.873 51.551V54.102L876.623 51.649ZM952.863 72.75C952.847 62.306 948.235 54.598 939.373 50.201C928.905 45.007 915.869 47.654 908.023 56.567C903.576 61.619 901.873 66.557 901.873 74.398C901.873 84.16 906.412 91.765 915.119 96.589C919.771 99.166 921.347 99.499 928.873 99.491C938.239 99.482 941.844 98.176 947.611 92.703L950.85 89.63L945.616 86.769L940.383 83.907L936.742 85.953C929.805 89.852 920.042 87.927 916.67 81.996L914.966 79H933.92H952.873L952.863 72.75ZM822.349 99.405C831.051 101.589 837.235 90.362 830.848 83.975C827.925 81.052 821.483 81.299 818.328 84.455C813.776 89.007 816.154 97.85 822.349 99.405Z" fill="#E6620D"/>
<path d="M863.815 60.032C859.107 61.306 856.715 63.135 855.288 66.548C853.438 70.977 853.5 74.412 855.508 78.643C857.529 82.903 861.402 85 867.247 85C878.192 85 883.791 71.086 875.892 63.518C872.726 60.485 867.603 59.007 863.815 60.032Z" fill="#E66B15"/>
<path fill-rule="evenodd" clip-rule="evenodd" d="M724.231 31.5L736.626 15.75C743.443 7.088 749.181 0 749.376 0C749.572 0 755.379 7.2 762.281 16L774.83 32H767.351H759.873V39.5V47H767.373H774.873V57V67H767.373H759.873V81.5C759.873 99.176 760.318 100 769.873 100H775.873V108.941C775.873 114.604 775.451 118.143 774.722 118.593C774.089 118.984 769.247 119.304 763.96 119.304C752.096 119.304 746.324 117.162 742.495 111.338C738.797 105.713 737.925 100.301 737.897 82.8L737.873 67.1L732.123 66.8L726.373 66.5L726.087 56.75L725.801 47H731.837H737.873V39.544V32.088L731.052 31.794L724.231 31.5ZM328.873 119V67V15H339.873H350.873V67V119H339.873H328.873ZM5.2 58.334C7.496 53.894 14.09 48.561 19.639 46.656C22.926 45.528 27.147 45.103 33.448 45.266C41.304 45.468 43.314 45.905 48.405 48.51C52.107 50.405 55.529 53.15 57.639 55.916L60.992 60.311L52.182 65.11L43.373 69.909L41.069 66.979C36.321 60.938 25.373 60.936 25.373 66.975C25.373 70.009 27.259 71.006 40.431 74.937C56.617 79.768 61.873 85.037 61.873 96.433C61.873 109.207 54.736 117.042 40.406 120C25.006 123.179 7.977 117.16 1.686 106.314L0 103.406L9.025 98.583L18.051 93.76L20.974 97.307C25.733 103.08 34.325 104.466 39.123 100.234C43.319 96.532 40.235 93.961 26.298 89.542C12.97 85.315 7.649 82.05 5.195 76.594C2.95 71.601 2.953 62.68 5.2 58.334ZM177.928 51.434C179.346 49.725 183.914 47.17 187.867 45.876C192.27 44.433 204.994 45.492 209.995 47.718C218.852 51.659 225.994 59.754 229.217 69.506C235.446 88.351 227.846 108.861 211.63 116.964C206.459 119.548 204.423 119.999 197.963 119.994C188.825 119.988 183.916 118.748 180.01 115.462C178.401 114.108 176.812 113 176.479 113C176.146 113 175.872 120.762 175.872 130.25L175.87 147.5L164.872 147.519L153.873 147.538V97.269V47H164.373H174.873V50C174.873 53.317 175.947 53.821 177.928 51.434ZM266.682 50.07C268.712 48.458 271.948 46.673 273.873 46.102C275.798 45.532 280.973 45.189 285.373 45.34C292.23 45.576 294.271 46.095 299.658 48.966C307.196 52.984 311.178 57.29 315.094 65.659C323.689 84.026 316.539 108.498 300.133 116.867C289.342 122.373 274.163 121.322 266.067 114.509L262.873 111.822L262.874 129.661L262.876 147.5H252.624C244.481 147.5 242.233 147.192 241.693 146C241.319 145.175 240.982 122.563 240.943 95.75L240.873 47H251.373H261.873V50C261.873 51.65 262.124 53 262.432 53C262.739 53 264.651 51.681 266.682 50.07ZM363.748 67.853C367.57 58.005 376.452 49.867 387.159 46.405C389.744 45.569 394.853 45.135 400.373 45.282C407.662 45.477 410.441 46.021 414.993 48.146C421.794 51.322 428.119 56.858 431.459 62.557C434.657 68.014 437.157 79.926 436.301 85.634L435.646 90H409.259C394.747 90 382.873 90.284 382.873 90.632C382.873 92.842 387.724 98.394 391.208 100.171C398.17 103.723 409.391 102.659 414.395 97.973C416.39 96.105 416.52 96.14 423.895 100.528C428.008 102.974 431.823 105.178 432.373 105.425C432.923 105.672 431.017 108.117 428.137 110.86C418.967 119.592 405.134 122.816 390.658 119.595C377.707 116.714 368.301 108.889 363.781 97.234C360.673 89.221 360.658 75.816 363.748 67.853ZM470.18 51.181C471.449 49.989 474.261 48.129 476.43 47.047C484.439 43.051 498.612 45.487 504.25 51.827L506.127 53.938L509.992 50.63C514.624 46.665 519.689 45 527.113 45C538.465 45 546.1 49.653 550.965 59.535L554.177 66.06L554.662 92.53L555.146 119H544.074H533.002L532.687 94.579C532.375 70.349 532.354 70.137 529.963 67.594C525.2 62.528 517.471 63.503 513.271 69.699C511.548 72.242 511.367 74.621 511.311 95.5L511.248 118.5L500.64 118.783L490.032 119.066L489.703 95.104C489.393 72.593 489.246 70.972 487.271 68.329C484.341 64.408 479.711 63.23 475.369 65.301C468.633 68.513 468.365 69.689 468.44 95.713L468.508 119H457.69H446.873V83V47H457.373H467.873V50.174V53.349L470.18 51.181ZM564.136 79.634C565.488 63.649 575.343 51.081 590.159 46.451C595.915 44.652 607.438 44.682 613.598 46.511C628.936 51.066 639.581 66.757 638.692 83.5L638.373 89.5L612.123 89.767L610.934 89.779C592.686 89.9634 586.508 90.0258 585.964 91.8078C585.685 92.72 586.883 94.0826 588.693 96.1428L588.923 96.404C592.57 100.558 597.506 102.378 604.629 102.197C610.166 102.056 612.984 101.013 616.523 97.795C618.672 95.84 618.676 95.841 626.767 100.67C631.219 103.326 634.864 105.897 634.867 106.382C634.87 106.867 633.246 108.798 631.258 110.673C617.491 123.658 591.656 124.077 576.387 111.565C568.524 105.122 563.163 91.148 564.136 79.634ZM673.123 51.299C675.693 48.958 679.108 47.073 682.815 45.948C687.095 44.649 696.38 44.915 700.763 46.461C707.151 48.715 711.56 52.663 714.598 58.85L717.373 64.5L717.682 91.75L717.991 119L707.182 118.999L696.373 118.998V95.705C696.373 74.827 696.183 72.122 694.545 69.622C690.703 63.759 681.197 62.516 676.101 67.21C671.349 71.588 670.873 74.341 670.873 97.468V119H659.873H648.873V83V47H659.873H670.873V50.174V53.349L673.123 51.299ZM73.649 104.041C71.609 98.929 71.41 96.507 71.081 72.75L70.724 47H81.798H92.873V69.032C92.873 92.693 93.464 96.2 97.99 99.369C99.373 100.338 102.306 101 105.213 101C109.544 101 110.544 100.564 113.892 97.217C118.632 92.476 119.122 89.164 118.688 64.749L118.373 46.998L129.123 46.999L139.873 47V83V119H129.373H118.873V115.461V111.922L116.623 114.085C110.362 120.104 96.125 122.3 87.373 118.595C81.604 116.154 76.193 110.415 73.649 104.041ZM414.873 73.404C414.873 71.031 411.092 66.165 408.01 64.571C399.673 60.26 389.615 62.827 384.891 70.472C383.781 72.267 382.873 74.02 382.873 74.368C382.873 74.716 390.073 75 398.873 75C412.855 75 414.873 74.799 414.873 73.404ZM617.873 74.148C617.873 72.587 613.407 66.708 610.873 64.934C604.366 60.378 594.209 62.247 588.481 69.054C583.656 74.788 584.135 75 601.873 75C610.673 75 617.873 74.617 617.873 74.148ZM200.812 99.031C213.814 92.398 211.936 69.331 198.055 65.173C193.435 63.788 191.416 63.794 187.373 65.204C184.062 66.358 179.292 70.409 177.631 73.476C172.831 82.34 176.419 95.128 184.942 99.536C188.931 101.598 196.236 101.366 200.812 99.031ZM283.231 100.92C298.878 98.117 302.166 73.532 287.867 66.25C280.422 62.458 273.106 63.786 267.548 69.938C263.569 74.343 262.392 78.639 263.112 86.131C264.089 96.308 272.885 102.773 283.231 100.92Z" fill="#191B1F"/>
<path d="M919.524 62.002C917.644 63.652 915.87 65.902 915.583 67.002C915.081 68.92 915.556 69 927.467 69C934.29 69 939.873 68.753 939.873 68.45C939.873 68.148 939.19 66.581 938.356 64.967C934.992 58.462 925.295 56.935 919.524 62.002Z" fill="#E6620D"/>
</svg>
